<svg xmlns="http://www.w3.org/2000/svg" xmlns:xlink="http://www.w3.org/1999/xlink" viewBox="0 0 500 500"><defs><clipPath id="freepik--clip-path--inject-89"><path d="M199.48,341.1s-7-9.79-10.69-10.58c-2.2-.47-6.94,2.6-7.28,5.29s3.12,17.59,2.08,20.71,4.57,11.87,8.65,16.59,5.2,7.48,8,3.67" style="fill:#fff;stroke:#263238;stroke-linecap:round;stroke-linejoin:round"></path></clipPath><clipPath id="freepik--clip-path-2--inject-89"><path d="M300.52,341.1s7-9.79,10.69-10.58c2.2-.47,6.94,2.6,7.28,5.29s-3.12,17.59-2.08,20.71-4.57,11.87-8.65,16.59-5.2,7.48-8,3.67" style="fill:#fff;stroke:#263238;stroke-linecap:round;stroke-linejoin:round"></path></clipPath><clipPath id="freepik--clip-path-3--inject-89"><path d="M306.88,301.34c-1.23-15.29-11.21-47.43-56.72-47.63h-.32c-45.51.2-55.49,32.34-56.72,47.63s5.26,72.11,7.56,82.85c2.46,11.51,14.09,20,26.2,32.64,8.75,9.16,10.11,10.33,23,10.47h.32c12.85-.14,14.21-1.31,23-10.47,12.11-12.67,23.74-21.13,26.2-32.64C301.62,373.45,308.11,316.66,306.88,301.34Z" style="fill:#fff;stroke:#263238;stroke-linecap:round;stroke-linejoin:round"></path></clipPath><clipPath id="freepik--clip-path-4--inject-89"><path d="M315.16,179.77a65.16,65.16,0,1,0-69.61,65l4.45,17,4.45-17A65.15,65.15,0,0,0,315.16,179.77Z" style="fill:#fff;stroke:#263238;stroke-linecap:round;stroke-linejoin:round"></path></clipPath></defs><g id="freepik--background-simple--inject-89"><path d="M67.93,167.09s-27.88,72,11.3,144.5S199.11,422.39,263.7,455.14s131.66,16.8,163.53-36.84-11.84-91.93-11.9-168.42,11.45-96.74-30-161.36-143.06-78.93-219.9-31S67.93,167.09,67.93,167.09Z" style="fill:#fff;opacity:0.7000000000000001"></path><path d="M211.58,464.36C88.8,443.6,106.34,375.86,68.8,298.62S27.19,189.77,66.62,122.41s123-106.35,199.54-51.8,133.29,36.3,179.37,79S497,253,440.65,308,363,490,211.58,464.36Z" style="fill:#1977CC"></path><path d="M211.58,464.36C88.8,443.6,106.34,375.86,68.8,298.62S27.19,189.77,66.62,122.41s123-106.35,199.54-51.8,133.29,36.3,179.37,79S497,253,440.65,308,363,490,211.58,464.36Z" style="fill:#fff;opacity:0.7000000000000001"></path></g><g id="freepik--Character--inject-89"><path d="M315.61,464.2s-21.94-4.83-26.1-15.89,3.82-39.21,5.55-66.94H204.94c1.73,27.73,9.71,55.87,5.55,66.94s-26.1,15.89-26.1,15.89,45.64,21.31,62.07,21.57C264.57,486.06,315.61,464.2,315.61,464.2Z" style="fill:#fff"></path><path d="M193.2,461.48c3.47.91,7.6,1.91,11.66,2.72,6.53,1.31,12.88,2.1,16,1.2a6.84,6.84,0,0,0,2.36-1.2c5.32-4.11,4.26-15.23,4.26-15.23,41.34-3.07,58.94-40.07,59.48-41.22-4.27,16.29-14.44,43-11.58,53.71A5.28,5.28,0,0,0,277,464.2c2.14,1.85,5.76,1.34,9.43,0a59.62,59.62,0,0,0,12.13-6.59c-4.06-2.39-7.63-5.48-9.07-9.31-4.16-11.06,3.82-39.2,5.55-66.93H204.94c1.73,27.73,9.71,55.87,5.55,66.93C208.09,454.67,199.8,459,193.2,461.48Z" style="fill:#1977CC;opacity:0.4"></path><path d="M315.61,464.2s-21.94-4.83-26.1-15.89,3.82-39.21,5.55-66.94H204.94c1.73,27.73,9.71,55.87,5.55,66.94s-26.1,15.89-26.1,15.89" style="fill:none;stroke:#263238;stroke-miterlimit:10"></path><path d="M291.49,398.23S268.57,427,262.27,431c-8.27,5.29-26.19,5-30.39.53S207.53,401.9,207.71,396C208.05,385.24,291.49,398.23,291.49,398.23Z" style="fill:#263238"></path><path d="M199.48,341.1s-7-9.79-10.69-10.58c-2.2-.47-6.94,2.6-7.28,5.29s3.12,17.59,2.08,20.71,4.57,11.87,8.65,16.59,5.2,7.48,8,3.67" style="fill:#fff"></path><g style="clip-path:url(#freepik--clip-path--inject-89)"><path d="M183.59,356.52c-1,3.12,4.58,11.87,8.65,16.58s5.2,7.49,8,3.68c-3,1.13-5.32-5.12-3.94-6.33s.33-16.24-1.63-18.57-4.26-18-7.73-19c-1.38-.42-3.34.7-5.19,2.2a3.19,3.19,0,0,0-.22.77C181.16,338.5,184.62,353.4,183.59,356.52Z" style="fill:#1977CC;opacity:0.4"></path></g><path d="M199.48,341.1s-7-9.79-10.69-10.58c-2.2-.47-6.94,2.6-7.28,5.29s3.12,17.59,2.08,20.71,4.57,11.87,8.65,16.59,5.2,7.48,8,3.67" style="fill:none;stroke:#263238;stroke-linecap:round;stroke-linejoin:round"></path><path d="M184.63,343.52s-1-4.45,1.21-5.6,5.12,12.95,6.94,14.27.52,4.68,0,6.59,1.56,2.42,1.73,3.81.35,3-.69,3.29-4.68-2.25-5.72-4.33-1.57-8.32-1.57-8.32" style="fill:none;stroke:#263238;stroke-linecap:round;stroke-linejoin:round"></path><path d="M191,348.67a2.08,2.08,0,0,0-2.93,2" style="fill:none;stroke:#263238;stroke-linecap:round;stroke-linejoin:round"></path><path d="M300.52,341.1s7-9.79,10.69-10.58c2.2-.47,6.94,2.6,7.28,5.29s-3.12,17.59-2.08,20.71-4.57,11.87-8.65,16.59-5.2,7.48-8,3.67" style="fill:#fff"></path><g style="clip-path:url(#freepik--clip-path-2--inject-89)"><path d="M299.8,376.78c2.76,3.8,3.88,1.05,8-3.68s9.69-13.46,8.65-16.58,2.43-18,2.09-20.71a3.13,3.13,0,0,0-.21-.75c-1.86-1.51-3.83-2.64-5.22-2.22-3.47,1-5.77,16.72-7.73,19s-3,17.36-1.64,18.57S302.78,377.85,299.8,376.78Z" style="fill:#1977CC;opacity:0.4"></path></g><path d="M300.52,341.1s7-9.79,10.69-10.58c2.2-.47,6.94,2.6,7.28,5.29s-3.12,17.59-2.08,20.71-4.57,11.87-8.65,16.59-5.2,7.48-8,3.67" style="fill:none;stroke:#263238;stroke-linecap:round;stroke-linejoin:round"></path><path d="M315.37,343.52s1-4.45-1.21-5.6-5.12,12.95-6.94,14.27-.52,4.68,0,6.59-1.56,2.42-1.73,3.81-.35,3,.69,3.29,4.68-2.25,5.72-4.33,1.57-8.32,1.57-8.32" style="fill:none;stroke:#263238;stroke-linecap:round;stroke-linejoin:round"></path><path d="M309,348.67a2.08,2.08,0,0,1,2.93,2" style="fill:none;stroke:#263238;stroke-linecap:round;stroke-linejoin:round"></path><path d="M306.88,301.34c-1.23-15.29-11.21-47.43-56.72-47.63h-.32c-45.51.2-55.49,32.34-56.72,47.63s5.26,72.11,7.56,82.85c2.46,11.51,14.09,20,26.2,32.64,8.75,9.16,10.11,10.33,23,10.47h.32c12.85-.14,14.21-1.31,23-10.47,12.11-12.67,23.74-21.13,26.2-32.64C301.62,373.45,308.11,316.66,306.88,301.34Z" style="fill:#fff"></path><g style="clip-path:url(#freepik--clip-path-3--inject-89)"><path d="M250.08,371.22c-5.12,0-7.31-3.37-8.93-3.37a26.45,26.45,0,0,0-4.39.63s.5-4.93,3.42-6.93c0,0-8.74,4.49-9.68,6.93s0,12.89,0,12.89,3.88-7.65,4.78-6.85A17.85,17.85,0,0,0,246,378.57l-1,2.8,4.49,2s-1-4,.51-4.76,4,.83,4,.83,8.27-2,10.72-4.88c1.24-1.45,3.4,6.85,3.4,6.85s1.16-10.47,0-14-7.5-5.78-7.5-5.78,3.9,4.16,2.62,6.93c0,0-1.86-1.06-5.45-.37C257.53,368.16,253.35,371.22,250.08,371.22Z" style="fill:#1977CC;opacity:0.4"></path><path d="M267.41,389.83s1.26-1.93-12-4.07L250,387.38l-5.44-1.62s-11.35,1.6-13,4.07a91.89,91.89,0,0,0,15.3-.17L250,390.8l3.14-1.14S265.22,390.14,267.41,389.83Z" style="fill:#1977CC;opacity:0.4"></path><path d="M264.72,394.61s-1.18,3.75-4.56,5-16.73,2.08-19.77,0a23.53,23.53,0,0,1-5.11-5,35.68,35.68,0,0,0,14.72.69C258.5,394,260,397.27,264.72,394.61Z" style="fill:#1977CC;opacity:0.4"></path><path d="M275.42,326.71c-.62-1.5-11.3-1-12.27,0s-6.28,7.72-7.55,12.49a55.85,55.85,0,0,0-1.43,14.62c.22,2.65,4.85-2.46,6.76-5.31s.6-7.1,1.34-9.31,5.17,3.09,5.17,3.09-3.87-5.3-2.68-7.9S275.42,326.71,275.42,326.71Z" style="fill:#1977CC;opacity:0.4"></path><path d="M242.38,336.65s-5.5-9.48-7.1-10.32-5.9-.95-6.94,0-2.52,4.38-.82,4.14S242.56,341.67,242.38,336.65Z" style="fill:#1977CC;opacity:0.4"></path><path d="M299.32,384.19c-1.64,7.68-7.36,14-14.58,21.12,2-8.51,2.71-19.36,2.72-28.1,0-14.22,6.56-22.89,8.88-28.42s-4.28-8.63-4.28-8.63-6-7.32-4.28-8.37,4.73-9.36,4.73-9.36l3.83-.18c-2.22-4.46-5.09-13.34-3.83-17.13s-2.3-16.66-2.3-16.66l16,7.72a50.75,50.75,0,0,1,.68,5.16C308.11,316.66,301.62,373.45,299.32,384.19Z" style="fill:#1977CC;opacity:0.4"></path><path d="M215.26,405.31c-7.22-7.12-12.94-13.44-14.58-21.12-2.3-10.74-8.79-67.53-7.55-82.85a50.75,50.75,0,0,1,.68-5.16l16-7.72s-3.56,12.86-2.3,16.66-1.61,12.67-3.83,17.13l3.83.18s3,8.32,4.73,9.36-4.28,8.37-4.28,8.37-6.61,3.08-4.28,8.63,8.84,14.2,8.88,28.42C212.55,386,213.22,396.8,215.26,405.31Z" style="fill:#1977CC;opacity:0.4"></path></g><path d="M306.88,301.34c-1.23-15.29-11.21-47.43-56.72-47.63h-.32c-45.51.2-55.49,32.34-56.72,47.63s5.26,72.11,7.56,82.85c2.46,11.51,14.09,20,26.2,32.64,8.75,9.16,10.11,10.33,23,10.47h.32c12.85-.14,14.21-1.31,23-10.47,12.11-12.67,23.74-21.13,26.2-32.64C301.62,373.45,308.11,316.66,306.88,301.34Z" style="fill:none;stroke:#263238;stroke-linecap:round;stroke-linejoin:round"></path><path d="M263.48,323.21a5.25,5.25,0,0,1,4.19-3.82c5.32-1.06,12.57-2.64,19.1-.66,9.15,2.78,8.81,8,8.81,8a9.22,9.22,0,0,0-8.81-4.4c-6.1.58-23.62,2.32-23.62,2.32Z" style="fill:#263238"></path><path d="M286.81,339.91s-3.16,4.51-10.95,4.44-10.15-4.47-10.15-4.47l3.34,1.17a18.38,18.38,0,0,0,14.56-.45Z" style="fill:#263238"></path><path d="M267.43,336.14s3.81-4.1,7-4.23" style="fill:none;stroke:#263238;stroke-linecap:round;stroke-linejoin:round"></path><path d="M255,341.1c-2.25,6.24,0,20.45,0,20.45" style="fill:none;stroke:#263238;stroke-linecap:round;stroke-linejoin:round"></path><path d="M268.09,339.11s8.31,3.46,15.24,0" style="fill:none;stroke:#263238;stroke-linecap:round;stroke-linejoin:round"></path><path d="M261.32,330.52s2.7-4.62,5-5" style="fill:none;stroke:#263238;stroke-linecap:round;stroke-linejoin:round"></path><path d="M236.52,323.21a5.25,5.25,0,0,0-4.19-3.82c-5.32-1.06-12.57-2.64-19.1-.66-9.15,2.78-8.81,8-8.81,8a9.22,9.22,0,0,1,8.81-4.4c6.1.58,23.62,2.32,23.62,2.32Z" style="fill:#263238"></path><path d="M214.19,339.91s3.16,4.51,10.95,4.44,10.15-4.47,10.15-4.47L232,341.05a18.38,18.38,0,0,1-14.56-.45Z" style="fill:#263238"></path><path d="M233.57,336.14s-3.81-4.1-7-4.23" style="fill:none;stroke:#263238;stroke-linecap:round;stroke-linejoin:round"></path><path d="M232.91,339.11s-8.31,3.46-15.24,0" style="fill:none;stroke:#263238;stroke-linecap:round;stroke-linejoin:round"></path><path d="M233.69,325.5c7.41,1.21,11.31,15.6,11.31,15.6,2.25,6.24,0,20.45,0,20.45" style="fill:none;stroke:#263238;stroke-linecap:round;stroke-linejoin:round"></path><path d="M243.13,368.62a10,10,0,0,0,7,2.6,9.36,9.36,0,0,0,6.79-2.6" style="fill:none;stroke:#263238;stroke-linecap:round;stroke-linejoin:round"></path><path d="M253.61,376.17a14.6,14.6,0,0,1,3.14-2.84c1.58-.94,2.64.79,2.64.79s-2,1.91-3.57,1.6Z" style="fill:#263238"></path><path d="M246.39,376.17a14.6,14.6,0,0,0-3.14-2.84c-1.58-.94-2.64.79-2.64.79s2,1.91,3.57,1.6Z" style="fill:#263238"></path><path d="M240.18,375.74s-4.71-1.36-4.88-3.62a4.59,4.59,0,0,1,1.46-3.64" style="fill:none;stroke:#263238;stroke-linecap:round;stroke-linejoin:round"></path><path d="M259.82,375.74s4.71-1.36,4.88-3.62a4.59,4.59,0,0,0-1.46-3.64" style="fill:none;stroke:#263238;stroke-linecap:round;stroke-linejoin:round"></path><path d="M269.5,391.16s-.95-2.1-2.09-1.33-13.7-.53-14.27-.17c-.28.18-3.14,1.14-3.14,1.14s-2.86-1-3.14-1.14c-.57-.36-13.13.93-14.27.17s-2.09,1.33-2.09,1.33" style="fill:none;stroke:#263238;stroke-linecap:round;stroke-linejoin:round"></path><path d="M266.19,393.22s-2.31,2.78-4.86,2.78-5.33-.7-11.33-.7-8.79.7-11.33.7-4.86-2.78-4.86-2.78" style="fill:none;stroke:#263238;stroke-linecap:round;stroke-linejoin:round"></path><path d="M266.19,387.84s-8.55-2-10.75-2.08L250,387.38l-5.44-1.62c-2.2.12-10.75,2.08-10.75,2.08" style="fill:none;stroke:#263238;stroke-linecap:round;stroke-linejoin:round"></path><path d="M305.36,267.12c-9.61-11.94-35.15-21.3-59.47-17.66,0,0,6.86-2.61,10.68-2.61,0,0-18.31-.62-24,4.86l5.7-5.48s-19.74,5.51-24,13l4.24-7.44S215.6,253,211.85,255h0c-7.57,3.25-13.75,7.51-17.49,12.17-9.61,11.94-5.13,38-5.13,38-1.56,29.49,7.8,51.73,7.8,51.73-.9-10.92,1.75-39.06,1.75-39.06s5-3,5-7.8,3-19.45,8.51-19.8S249,296.34,249,296.34l.83-.32.83.32s31.2-6.5,36.74-6.15,8.57,15,8.52,19.8,5,7.8,5,7.8,2.66,28.14,1.76,39.06c0,0,9.35-22.24,7.8-51.73C310.49,305.12,315,279.06,305.36,267.12Z" style="fill:#263238"></path><path d="M251,290s-9.76-13.55-2.43-26.2" style="fill:none;stroke:#fff;stroke-linecap:round;stroke-linejoin:round;opacity:0.30000000000000004"></path><path d="M243.43,290s-13.72-10.12-13.53-21.19" style="fill:none;stroke:#fff;stroke-linecap:round;stroke-linejoin:round;opacity:0.30000000000000004"></path><path d="M233.69,288.66s-18.63-4.71-20.75-13.84" style="fill:none;stroke:#fff;stroke-linecap:round;stroke-linejoin:round;opacity:0.30000000000000004"></path><path d="M261.32,290s0-12.68,9.06-19.35" style="fill:none;stroke:#fff;stroke-linecap:round;stroke-linejoin:round;opacity:0.30000000000000004"></path><path d="M270.38,288.66a18.12,18.12,0,0,1,12.44-8.86" style="fill:none;stroke:#fff;stroke-linecap:round;stroke-linejoin:round;opacity:0.30000000000000004"></path></g><g id="freepik--mind-map--inject-89"><path d="M384.6,109.8v-6.15l-4.61-.4a12.35,12.35,0,0,0-1.14-2.76l3-3.53-4.35-4.34-3.53,3a12.63,12.63,0,0,0-2.76-1.14l-.4-4.6h-6.14l-.4,4.6a12.63,12.63,0,0,0-2.76,1.14l-3.53-3L353.61,97l3,3.53a12.35,12.35,0,0,0-1.14,2.76l-4.61.4v6.15l4.61.39a12.16,12.16,0,0,0,1.14,2.76l-3,3.53,4.35,4.35,3.53-3a12.61,12.61,0,0,0,2.76,1.13l.4,4.61h6.14l.4-4.61a12.61,12.61,0,0,0,2.76-1.13l3.53,3,4.35-4.35-3-3.53a12.16,12.16,0,0,0,1.14-2.76Zm-16.88,4.06a7.14,7.14,0,1,1,7.14-7.14A7.14,7.14,0,0,1,367.72,113.86Z" style="fill:none;stroke:#263238;stroke-linecap:round;stroke-linejoin:round"></path><path d="M407.93,123.51v-4.37l-3.28-.28a8.44,8.44,0,0,0-.81-2l2.12-2.52-3.09-3.09-2.52,2.11a9.4,9.4,0,0,0-2-.81l-.28-3.27h-4.38l-.28,3.27a9.4,9.4,0,0,0-2,.81L389,111.29l-3.1,3.09L388,116.9a8.44,8.44,0,0,0-.81,2l-3.28.28v4.37l3.28.29a8.62,8.62,0,0,0,.81,2l-2.12,2.51,3.1,3.09,2.51-2.11a9.4,9.4,0,0,0,2,.81l.28,3.28h4.38l.28-3.28a9.4,9.4,0,0,0,2-.81l2.52,2.11,3.09-3.09-2.12-2.51a8.62,8.62,0,0,0,.81-2Zm-12,2.9a5.08,5.08,0,1,1,5.08-5.08A5.08,5.08,0,0,1,395.92,126.41Z" style="fill:none;stroke:#263238;stroke-linecap:round;stroke-linejoin:round"></path><path d="M383.54,136.7v-3.11l-2.33-.2a6.66,6.66,0,0,0-.58-1.4l1.5-1.79-2.2-2.2-1.78,1.51a6.36,6.36,0,0,0-1.4-.58l-.2-2.33h-3.11l-.2,2.33a6.17,6.17,0,0,0-1.4.58L370.05,128l-2.2,2.2,1.5,1.79a6.63,6.63,0,0,0-.57,1.4l-2.33.2v3.11l2.33.2a6.85,6.85,0,0,0,.57,1.4l-1.5,1.79,2.2,2.2,1.79-1.51a6.17,6.17,0,0,0,1.4.58l.2,2.33h3.11l.2-2.33a6.36,6.36,0,0,0,1.4-.58l1.78,1.51,2.2-2.2-1.5-1.79a6.88,6.88,0,0,0,.58-1.4ZM375,138.76a3.62,3.62,0,1,1,3.62-3.62A3.62,3.62,0,0,1,375,138.76Z" style="fill:none;stroke:#263238;stroke-linecap:round;stroke-linejoin:round"></path><path d="M335.24,116.77a44.14,44.14,0,0,1,44.15-44.15" style="fill:none;stroke:#263238;stroke-linecap:round;stroke-linejoin:round"></path><path d="M393.41,158.64A44.17,44.17,0,0,1,336,124.84" style="fill:none;stroke:#263238;stroke-linecap:round;stroke-linejoin:round"></path><path d="M405.68,152.24a45.44,45.44,0,0,1-6.31,3.91" style="fill:none;stroke:#263238;stroke-linecap:round;stroke-linejoin:round"></path><path d="M423.54,116.77A44.06,44.06,0,0,1,410.61,148" style="fill:none;stroke:#263238;stroke-linecap:round;stroke-linejoin:round"></path><path d="M388.28,73.51a44.17,44.17,0,0,1,27.8,18.7" style="fill:none;stroke:#263238;stroke-linecap:round;stroke-linejoin:round"></path><line x1="107.66" y1="100.34" x2="105.22" y2="103.69" style="fill:none;stroke:#263238;stroke-linecap:round;stroke-linejoin:round"></line><line x1="102.66" y1="101.82" x2="105.1" y2="98.47" style="fill:none;stroke:#263238;stroke-linecap:round;stroke-linejoin:round"></line><circle cx="116.11" cy="86.04" r="16.53" transform="translate(-13.64 22.41) rotate(-10.41)" style="fill:none;stroke:#263238;stroke-linecap:round;stroke-linejoin:round"></circle><path d="M86.41,126.83h0a2.54,2.54,0,0,1-.56-3.56l14.86-20.41a2.55,2.55,0,0,1,3.56-.56h0a2.54,2.54,0,0,1,.56,3.56L90,126.27A2.54,2.54,0,0,1,86.41,126.83Z" style="fill:none;stroke:#263238;stroke-linecap:round;stroke-linejoin:round"></path><path d="M127.7,94.49a14.34,14.34,0,1,1-3.15-20A14.34,14.34,0,0,1,127.7,94.49Z" style="fill:none;stroke:#263238;stroke-linecap:round;stroke-linejoin:round"></path><path d="M90.4,138.18A44.15,44.15,0,0,1,69,79.53" style="fill:none;stroke:#263238;stroke-linecap:round;stroke-linejoin:round"></path><path d="M152.9,103.09A44.18,44.18,0,0,1,98,140.92" style="fill:none;stroke:#263238;stroke-linecap:round;stroke-linejoin:round"></path><path d="M152.26,89.27a44.3,44.3,0,0,1,.89,7.37" style="fill:none;stroke:#263238;stroke-linecap:round;stroke-linejoin:round"></path><path d="M127.63,58.12A44,44,0,0,1,150.48,83" style="fill:none;stroke:#263238;stroke-linecap:round;stroke-linejoin:round"></path><path d="M73.55,71.84A44.11,44.11,0,0,1,94.28,56.53a45.07,45.07,0,0,1,7.94-2" style="fill:none;stroke:#263238;stroke-linecap:round;stroke-linejoin:round"></path><path d="M36.22,208.35a33.11,33.11,0,0,1,33.11-33.12" style="fill:none;stroke:#263238;stroke-linecap:round;stroke-linejoin:round"></path><path d="M79.85,239.75A33.14,33.14,0,0,1,36.77,214.4" style="fill:none;stroke:#263238;stroke-linecap:round;stroke-linejoin:round"></path><path d="M89.05,235a32.84,32.84,0,0,1-4.74,2.93" style="fill:none;stroke:#263238;stroke-linecap:round;stroke-linejoin:round"></path><path d="M102.44,208.35a33,33,0,0,1-9.7,23.41" style="fill:none;stroke:#263238;stroke-linecap:round;stroke-linejoin:round"></path><path d="M76,175.91a33.13,33.13,0,0,1,20.85,14" style="fill:none;stroke:#263238;stroke-linecap:round;stroke-linejoin:round"></path><path d="M82.63,201.59a13.3,13.3,0,1,0-19.8,11.59l.44,1.7H75.39l.43-1.7A13.28,13.28,0,0,0,82.63,201.59Z" style="fill:none;stroke:#263238;stroke-linecap:round;stroke-linejoin:round"></path><path d="M73,225.89h-7.4a1.91,1.91,0,0,1-1.89-1.71l-.91-9.3h13l-.91,9.3A1.89,1.89,0,0,1,73,225.89Z" style="fill:none;stroke:#263238;stroke-linecap:round;stroke-linejoin:round"></path><path d="M73.17,226.06c0,1.29-1.72,2.34-3.84,2.34s-3.84-1.05-3.84-2.34" style="fill:none;stroke:#263238;stroke-linecap:round;stroke-linejoin:round"></path><polyline points="62.83 204.79 65.92 204.79 67.84 200.74 70.08 208.52 72.42 201.59 73.59 204.63 75.82 204.63" style="fill:none;stroke:#263238;stroke-linecap:round;stroke-linejoin:round"></polyline><path d="M240.36,29.34a20,20,0,0,1,26.38,10.14" style="fill:none;stroke:#263238;stroke-linecap:round;stroke-linejoin:round"></path><path d="M233.74,61.11a20,20,0,0,1,3.42-30" style="fill:none;stroke:#263238;stroke-linecap:round;stroke-linejoin:round"></path><path d="M238.64,65a20.63,20.63,0,0,1-2.78-1.89" style="fill:none;stroke:#263238;stroke-linecap:round;stroke-linejoin:round"></path><path d="M256.6,65.87a19.91,19.91,0,0,1-15.29.39" style="fill:none;stroke:#263238;stroke-linecap:round;stroke-linejoin:round"></path><path d="M268,43.33a20.16,20.16,0,0,1-2.62,14.94" style="fill:none;stroke:#263238;stroke-linecap:round;stroke-linejoin:round"></path><polygon points="250.16 52.6 246.8 52.6 244.8 36.11 252.16 36.11 250.16 52.6" style="fill:none;stroke:#263238;stroke-linecap:round;stroke-linejoin:round"></polygon><polygon points="250.16 55.6 246.8 55.6 245.8 59.1 251.16 59.1 250.16 55.6" style="fill:none;stroke:#263238;stroke-linecap:round;stroke-linejoin:round"></polygon><path d="M439.91,248.2a20,20,0,0,1-24.11-14.76" style="fill:none;stroke:#263238;stroke-linecap:round;stroke-linejoin:round"></path><path d="M452.18,218.15A20,20,0,0,1,443.39,247" style="fill:none;stroke:#263238;stroke-linecap:round;stroke-linejoin:round"></path><path d="M448.06,213.43a19.81,19.81,0,0,1,2.39,2.37" style="fill:none;stroke:#263238;stroke-linecap:round;stroke-linejoin:round"></path><path d="M430.56,209.33a19.93,19.93,0,0,1,15.11,2.39" style="fill:none;stroke:#263238;stroke-linecap:round;stroke-linejoin:round"></path><path d="M415.25,229.43a20,20,0,0,1,3-11.27,20.16,20.16,0,0,1,2.25-2.95" style="fill:none;stroke:#263238;stroke-linecap:round;stroke-linejoin:round"></path><path d="M441.52,220.76a5.4,5.4,0,0,0-6.28,2.36,5.42,5.42,0,0,0-6.3-2.36c-3.63,1.12-4.89,5.75-1.83,10a22.07,22.07,0,0,0,7.55,6l.58.28.57-.28a22,22,0,0,0,7.55-6C446.42,226.51,445.15,221.88,441.52,220.76Z" style="fill:none;stroke:#263238;stroke-linecap:round;stroke-linejoin:round"></path><path d="M359.41,270.33a28.25,28.25,0,0,1,38.08,12.14" style="fill:none;stroke:#263238;stroke-linecap:round;stroke-linejoin:round"></path><path d="M352.68,315.72a28.28,28.28,0,0,1,2.35-42.6" style="fill:none;stroke:#263238;stroke-linecap:round;stroke-linejoin:round"></path><path d="M359.93,320.82a29.2,29.2,0,0,1-4.08-2.45" style="fill:none;stroke:#263238;stroke-linecap:round;stroke-linejoin:round"></path><path d="M385.35,320.55a28.16,28.16,0,0,1-21.55,1.82" style="fill:none;stroke:#263238;stroke-linecap:round;stroke-linejoin:round"></path><path d="M399.6,287.79a28.25,28.25,0,0,1-.38,16.5,27.67,27.67,0,0,1-2.09,4.81" style="fill:none;stroke:#263238;stroke-linecap:round;stroke-linejoin:round"></path><circle cx="373.04" cy="294.73" r="13.31" style="fill:none;stroke:#263238;stroke-linecap:round;stroke-linejoin:round"></circle><path d="M375.79,297.59a4,4,0,1,1,.12-5.61A4,4,0,0,1,375.79,297.59Z" style="fill:none;stroke:#263238;stroke-linecap:round;stroke-linejoin:round"></path><path d="M378.84,300.78a8.38,8.38,0,1,1,.26-11.85A8.38,8.38,0,0,1,378.84,300.78Z" style="fill:none;stroke:#263238;stroke-linecap:round;stroke-linejoin:round"></path><line x1="373.04" y1="294.73" x2="387.53" y2="280.86" style="fill:none;stroke:#263238;stroke-linecap:round;stroke-linejoin:round"></line><polyline points="387.64 277.36 387.57 280.82 391.03 280.89" style="fill:none;stroke:#263238;stroke-linecap:round;stroke-linejoin:round"></polyline><polyline points="385.48 279.43 385.4 282.89 388.86 282.97" style="fill:none;stroke:#263238;stroke-linecap:round;stroke-linejoin:round"></polyline><polyline points="383.31 281.51 383.24 284.97 386.7 285.04" style="fill:none;stroke:#263238;stroke-linecap:round;stroke-linejoin:round"></polyline><path d="M116.32,329.47a20,20,0,0,1-24.11-14.76" style="fill:none;stroke:#263238;stroke-linecap:round;stroke-linejoin:round"></path><path d="M128.59,299.42a20,20,0,0,1-8.79,28.87" style="fill:none;stroke:#263238;stroke-linecap:round;stroke-linejoin:round"></path><path d="M124.47,294.7a19.81,19.81,0,0,1,2.39,2.37" style="fill:none;stroke:#263238;stroke-linecap:round;stroke-linejoin:round"></path><path d="M107,290.6A19.92,19.92,0,0,1,122.08,293" style="fill:none;stroke:#263238;stroke-linecap:round;stroke-linejoin:round"></path><path d="M91.66,310.7A20,20,0,0,1,97,296.48" style="fill:none;stroke:#263238;stroke-linecap:round;stroke-linejoin:round"></path><polyline points="103.02 302.71 103.02 317.35 120.27 317.35" style="fill:none;stroke:#263238;stroke-linecap:round;stroke-linejoin:round"></polyline><rect x="106.58" y="306.82" width="2.57" height="10.53" style="fill:none;stroke:#263238;stroke-linecap:round;stroke-linejoin:round"></rect><rect x="111.58" y="309.82" width="2.57" height="7.53" style="fill:none;stroke:#263238;stroke-linecap:round;stroke-linejoin:round"></rect><rect x="116.58" y="303.82" width="2.57" height="13.53" style="fill:none;stroke:#263238;stroke-linecap:round;stroke-linejoin:round"></rect><polyline points="131.64 294.73 250 182.92 104.27 201.85" style="fill:none;stroke:#263238;stroke-linecap:round;stroke-linejoin:round"></polyline><polyline points="150.49 126.41 250 182.92 248.13 70.56" style="fill:none;stroke:#263238;stroke-linecap:round;stroke-linejoin:round"></polyline><polyline points="338.74 142.88 250 182.92 410.61 222.32" style="fill:none;stroke:#263238;stroke-linecap:round;stroke-linejoin:round"></polyline><line x1="250" y1="182.92" x2="349.57" y2="273.12" style="fill:none;stroke:#263238;stroke-linecap:round;stroke-linejoin:round"></line><path d="M315.16,179.77a65.16,65.16,0,1,0-69.61,65l4.45,17,4.45-17A65.15,65.15,0,0,0,315.16,179.77Z" style="fill:#fff"></path><g style="clip-path:url(#freepik--clip-path-4--inject-89)"><path d="M315.16,179.77a65.16,65.16,0,1,0-69.61,65l4.45,17,4.45-17A65.15,65.15,0,0,0,315.16,179.77Z" style="fill:#1977CC;opacity:0"></path></g><path d="M315.16,179.77a65.16,65.16,0,1,0-69.61,65l4.45,17,4.45-17A65.15,65.15,0,0,0,315.16,179.77Z" style="fill:none;stroke:#263238;stroke-linecap:round;stroke-linejoin:round"></path><path d="M289,186.61c-.34,1.59-.6,3.44-.86,5.23a44.58,44.58,0,0,1-1.47,7.51,7.21,7.21,0,0,1-2,2.67c0,1.12-.54,7.66-5.12,9.75a4,4,0,0,1-2,3.09c-.17.1-16.08,8.73-21.74,8.73a3.68,3.68,0,0,1-1.06-.14c-2.72-.9-4-2.59-3.9-5.33a13.43,13.43,0,0,1,.65-3.53c-1.08-1.49-.84-3.39-.62-5.07a7.7,7.7,0,0,0,.07-2.89c-.54-2.06.23-5.4.44-6.22-.68-1.06-.48-4.08-.11-8.18.13-1.4.25-2.73.25-3.54a3.58,3.58,0,0,1,1.09-2.37,31.38,31.38,0,0,1,0-6.86c-1.13-4.27-.17-10.48,0-11.41a17.7,17.7,0,0,1-.22-11.73c-1.87-3.64-.91-10.65-.8-11.4-.08-.58-.57-4.82,1.44-6.76a3.87,3.87,0,0,1,3.56-.86c3.47.64,5.65,1.08,7.23,1.51a16.24,16.24,0,0,1,2.6.92,7.19,7.19,0,0,1,3,3.81,6.46,6.46,0,0,1,5.69,1.07c2.25,1.74,2.34,3.33,2.26,4,4.9,3,6.75,15.32,7,16.84a6.66,6.66,0,0,1,1.51,6.36,5.91,5.91,0,0,1,1.39,5.92,7.07,7.07,0,0,1-.61,1.42,0,0,0,0,0,0,0C286.7,179.28,289.87,182.43,289,186.61Z" style="fill:#1977CC"></path><path d="M289,186.61c-.34,1.59-.6,3.44-.86,5.23a44.58,44.58,0,0,1-1.47,7.51,7.21,7.21,0,0,1-2,2.67c0,1.12-.54,7.66-5.12,9.75a4,4,0,0,1-2,3.09c-.17.1-16.08,8.73-21.74,8.73a3.68,3.68,0,0,1-1.06-.14c-2.72-.9-4-2.59-3.9-5.33a1.1,1.1,0,0,1,.47.56c1.44,2.88,4.17,3.18,6.47,2.73s2.87-3.19,2.87-3.19l-4-2.48s4.54-1.45,7.35-2.5a2.21,2.21,0,0,0,1.18-3.49,5.3,5.3,0,0,1-4.24-.78,3.41,3.41,0,0,1,1.75-2.29c1.35-.5,6.07-3.28,4.25-4.73s-4.25-.1-4.25-.1c-3.65.58-4.95-1.52-4.95-1.52s10.25-3,10.1-6.51a12.4,12.4,0,0,0-1-5.13s4.11-1.18,4.88-4.06-2.49-6.29-2.49-6.29c1.66.42,2.75-2,2.49-2.94s3.29-3.78,3.13-5.75-3.13-2.21-3.13-2.21c1.85-3.88-1.29-12.09-1.29-12.09.87-4.31-3-8-3-8,.25-3.25-1.82-6.38-3.69-8.52a16.24,16.24,0,0,1,2.6.92,7.19,7.19,0,0,1,3,3.81,6.46,6.46,0,0,1,5.69,1.07c2.25,1.74,2.34,3.33,2.26,4,4.9,3,6.75,15.32,7,16.84a6.66,6.66,0,0,1,1.51,6.36,5.91,5.91,0,0,1,1.39,5.92,7.07,7.07,0,0,1-.61,1.42,0,0,0,0,0,0,0C286.7,179.28,289.87,182.43,289,186.61Z" style="opacity:0.2"></path><path d="M248.55,214.59c1.5,4.9.49,7.63-3.25,8.86a3.68,3.68,0,0,1-1.06.14c-2.15,0-5.78-1.25-9.47-2.8-6-2.53-12.17-5.87-12.27-5.93a4,4,0,0,1-2-3.09c-4.58-2.09-5.08-8.63-5.12-9.75a7.21,7.21,0,0,1-2-2.67,44.58,44.58,0,0,1-1.47-7.51c-.26-1.79-.52-3.64-.86-5.23-.88-4.18,2.29-7.33,2.43-7.46a0,0,0,0,0,0,0,7.07,7.07,0,0,1-.61-1.42,5.91,5.91,0,0,1,1.39-5.92,6.66,6.66,0,0,1,1.51-6.36c.21-1.52,2.06-13.82,7-16.84-.08-.66,0-2.25,2.26-4a6.46,6.46,0,0,1,5.69-1.07,7.19,7.19,0,0,1,3-3.81c1.75-.81,3.95-1.35,9.83-2.43a4,4,0,0,1,3.37.69l.19.17c2,1.94,1.52,6.18,1.44,6.76.11.75,1.07,7.76-.8,11.4a17.7,17.7,0,0,1-.22,11.73c.15.93,1.11,7.14,0,11.41a31.38,31.38,0,0,1,0,6.86,3.58,3.58,0,0,1,1.09,2.37c0,.81.12,2.14.24,3.54.38,4.1.58,7.12-.1,8.18.21.82,1,4.16.44,6.22a7.7,7.7,0,0,0,.07,2.89C249.39,211.2,249.63,213.1,248.55,214.59Z" style="fill:#1977CC"></path><path d="M248.55,214.59c1.5,4.9.49,7.63-3.25,8.86a3.68,3.68,0,0,1-1.06.14c-2.15,0-5.78-1.25-9.47-2.8a7.6,7.6,0,0,0,4.62-.34c4.23-2.43,1.3-4.71,1.3-4.71,5.53.55,4.36-6,4.8-9.06s-3.23-5.85-3.23-5.85c2.86.44,2.19-6,3.43-8.39s-.91-7.65-.91-7.65c-.46-4.18-2.15-5.51,0-8.35s0-9.79,0-9.79,1.48-3.1.91-5.58,0-7.34,0-7.34c-2-2.58,0-11.07,0-11.07a9.94,9.94,0,0,1,1.2-4.67l.19.17c2,1.94,1.52,6.18,1.44,6.76.11.75,1.07,7.76-.8,11.4a17.7,17.7,0,0,1-.22,11.73c.15.93,1.11,7.14,0,11.41a31.38,31.38,0,0,1,0,6.86,3.58,3.58,0,0,1,1.09,2.37c0,.81.12,2.14.24,3.54.38,4.1.58,7.12-.1,8.18.21.82,1,4.16.44,6.22a7.7,7.7,0,0,0,.07,2.89C249.39,211.2,249.63,213.1,248.55,214.59Z" style="opacity:0.2"></path><path d="M260.77,147.34s-1,5.67,2,8c0,0-.61,7,1.21,10.21,0,0-3,6.46,0,10.5,0,0-3.63,9.68,0,12.1s13.31-4.23,17.15-5,8.47-6.86,4.21-11.21" style="fill:none;stroke:#263238;stroke-linecap:round;stroke-linejoin:round"></path><path d="M273.84,167s0-2,0-4.85-2.18-6.78-2.18-6.78c1-2.54-2.82-8-2.82-8,1.61-2.49-1-6.47-2.69-7.27s-4-1.34-9.74-2.39-4.55,7.24-4.55,7.24-1.18,7.73.84,11.36a17.41,17.41,0,0,0,.2,11.73s-1.21,6.92,0,11.42c0,0-.44,5.06.08,7" style="fill:none;stroke:#263238;stroke-linecap:round;stroke-linejoin:round"></path><path d="M269.83,168a12.17,12.17,0,0,1,9.1,0" style="fill:none;stroke:#263238;stroke-linecap:round;stroke-linejoin:round"></path><path d="M256.73,184.05s-4.87,1.94-4.87,4.64-1.25,10.49-.11,11.64,11.21.54,18.08-4.1c0,0,8.69.81,10.51-1.41s4.89-2.79,5.27-4.22" style="fill:none;stroke:#263238;stroke-linecap:round;stroke-linejoin:round"></path><path d="M286.3,179.43s3.17,3.08,2.31,7.1-1.21,9.58-2.31,12.7-8.27,7.35-12.46,6.11c0,0-12.06,4.72-15.09,3.46" style="fill:none;stroke:#263238;stroke-linecap:round;stroke-linejoin:round"></path><path d="M251.75,200.33s-1.07,4-.48,6.19-1.25,5.72.59,8,16.78,1.07,19-1.35" style="fill:none;stroke:#263238;stroke-linecap:round;stroke-linejoin:round"></path><path d="M278.93,209s1.25,3.89-1.62,5.52-18.74,9.78-22.48,8.55-4.4-4-3-8.55" style="fill:none;stroke:#263238;stroke-linecap:round;stroke-linejoin:round"></path><path d="M284.27,201.85s-.16,7.58-5.07,9.66" style="fill:none;stroke:#263238;stroke-linecap:round;stroke-linejoin:round"></path><path d="M269.11,144a6.12,6.12,0,0,1,5.69.9c2.72,2.08,2.07,3.87,2.07,3.87,5.2,2.81,7,16.84,7,16.84a6.29,6.29,0,0,1,1.46,6.28c-1,4.13-6.84,3.14-11.52,5.7s-9.84-1.55-9.84-1.55" style="fill:none;stroke:#263238;stroke-linecap:round;stroke-linejoin:round"></path><path d="M264,188.16a9,9,0,0,1-6.26,4.28" style="fill:none;stroke:#263238;stroke-linecap:round;stroke-linejoin:round"></path><path d="M262.69,173.23a11.07,11.07,0,0,0-6.76,1.21" style="fill:none;stroke:#263238;stroke-linecap:round;stroke-linejoin:round"></path><path d="M252.9,168s4.24-3.25,5.85-2.65" style="fill:none;stroke:#263238;stroke-linecap:round;stroke-linejoin:round"></path><path d="M262.69,158.1s-5.35-.61-6.76,1.61" style="fill:none;stroke:#263238;stroke-linecap:round;stroke-linejoin:round"></path><path d="M252.7,156.28s.6-2.82,3.23-3.22" style="fill:none;stroke:#263238;stroke-linecap:round;stroke-linejoin:round"></path><path d="M251.86,144.92s1.65-2.9,4.07-2.43" style="fill:none;stroke:#263238;stroke-linecap:round;stroke-linejoin:round"></path><path d="M273.84,205.34s.45-3.14-1.37-4.51" style="fill:none;stroke:#263238;stroke-linecap:round;stroke-linejoin:round"></path><path d="M269.83,196.23s1.43-4.33,1-5.39" style="fill:none;stroke:#263238;stroke-linecap:round;stroke-linejoin:round"></path><path d="M260.61,200.39a3.56,3.56,0,0,1,2.08,2.7" style="fill:none;stroke:#263238;stroke-linecap:round;stroke-linejoin:round"></path><path d="M276.7,176.44s1.62,2.64.82,4.46" style="fill:none;stroke:#263238;stroke-linecap:round;stroke-linejoin:round"></path><path d="M283.9,165.63s-3.16-2.49-5-2.89" style="fill:none;stroke:#263238;stroke-linecap:round;stroke-linejoin:round"></path><path d="M271.66,155.35a8.42,8.42,0,0,1,5-.68" style="fill:none;stroke:#263238;stroke-linecap:round;stroke-linejoin:round"></path><path d="M239.23,147.34s1,5.67-2,8c0,0,.61,7-1.21,10.21,0,0,3,6.46,0,10.5,0,0,3.63,9.68,0,12.1s-13.31-4.23-17.15-5-8.47-6.86-4.21-11.21" style="fill:none;stroke:#263238;stroke-linecap:round;stroke-linejoin:round"></path><path d="M226.16,167s0-2,0-4.85,2.18-6.78,2.18-6.78c-1-2.54,2.82-8,2.82-8-1.61-2.49,1-6.47,2.69-7.27s4-1.34,9.74-2.39,4.55,7.24,4.55,7.24,1.18,7.73-.84,11.36a17.41,17.41,0,0,1-.2,11.73s1.21,6.92,0,11.42c0,0,.44,5.06-.08,7" style="fill:none;stroke:#263238;stroke-linecap:round;stroke-linejoin:round"></path><path d="M230.17,168a12.17,12.17,0,0,0-9.1,0" style="fill:none;stroke:#263238;stroke-linecap:round;stroke-linejoin:round"></path><path d="M243.27,184.05s4.87,1.94,4.87,4.64,1.25,10.49.1,11.64-11.2.54-18.07-4.1c0,0-8.69.81-10.51-1.41s-4.89-2.79-5.27-4.22" style="fill:none;stroke:#263238;stroke-linecap:round;stroke-linejoin:round"></path><path d="M213.7,179.43s-3.17,3.08-2.31,7.1,1.21,9.58,2.31,12.7,8.27,7.35,12.46,6.11c0,0,12.06,4.72,15.09,3.46" style="fill:none;stroke:#263238;stroke-linecap:round;stroke-linejoin:round"></path><path d="M248.24,200.33s1.08,4,.49,6.19,1.25,5.72-.59,8-16.78,1.07-19-1.35" style="fill:none;stroke:#263238;stroke-linecap:round;stroke-linejoin:round"></path><path d="M221.07,209s-1.25,3.89,1.62,5.52,18.74,9.78,22.48,8.55,4.4-4,3-8.55" style="fill:none;stroke:#263238;stroke-linecap:round;stroke-linejoin:round"></path><path d="M215.73,201.85s.16,7.58,5.07,9.66" style="fill:none;stroke:#263238;stroke-linecap:round;stroke-linejoin:round"></path><path d="M230.89,144a6.12,6.12,0,0,0-5.69.9c-2.72,2.08-2.07,3.87-2.07,3.87-5.2,2.81-7,16.84-7,16.84a6.29,6.29,0,0,0-1.46,6.28c1,4.13,6.84,3.14,11.52,5.7s9.84-1.55,9.84-1.55" style="fill:none;stroke:#263238;stroke-linecap:round;stroke-linejoin:round"></path><path d="M236,188.16a9,9,0,0,0,6.26,4.28" style="fill:none;stroke:#263238;stroke-linecap:round;stroke-linejoin:round"></path><path d="M237.31,173.23a11.07,11.07,0,0,1,6.76,1.21" style="fill:none;stroke:#263238;stroke-linecap:round;stroke-linejoin:round"></path><path d="M247.1,168s-4.24-3.25-5.85-2.65" style="fill:none;stroke:#263238;stroke-linecap:round;stroke-linejoin:round"></path><path d="M237.31,158.1s5.35-.61,6.76,1.61" style="fill:none;stroke:#263238;stroke-linecap:round;stroke-linejoin:round"></path><path d="M247.3,156.28s-.6-2.82-3.23-3.22" style="fill:none;stroke:#263238;stroke-linecap:round;stroke-linejoin:round"></path><path d="M248.14,144.92s-1.65-2.9-4.07-2.43" style="fill:none;stroke:#263238;stroke-linecap:round;stroke-linejoin:round"></path><path d="M226.16,205.34s-.45-3.14,1.37-4.51" style="fill:none;stroke:#263238;stroke-linecap:round;stroke-linejoin:round"></path><path d="M230.17,196.23s-1.43-4.33-1-5.39" style="fill:none;stroke:#263238;stroke-linecap:round;stroke-linejoin:round"></path><path d="M239.39,200.39a3.56,3.56,0,0,0-2.08,2.7" style="fill:none;stroke:#263238;stroke-linecap:round;stroke-linejoin:round"></path><path d="M223.3,176.44s-1.62,2.64-.82,4.46" style="fill:none;stroke:#263238;stroke-linecap:round;stroke-linejoin:round"></path><path d="M216.1,165.63s3.16-2.49,5-2.89" style="fill:none;stroke:#263238;stroke-linecap:round;stroke-linejoin:round"></path><path d="M228.34,155.35a8.42,8.42,0,0,0-5-.68" style="fill:none;stroke:#263238;stroke-linecap:round;stroke-linejoin:round"></path></g></svg>